<?xml version="1.0" encoding="UTF-8"?>
<svg version="1.1" xmlns="http://www.w3.org/2000/svg" width="512" height="512">
<path d="M0 0 C2.19576858 -0.00072232 4.3915313 -0.00287832 6.58729839 -0.00549722 C14.31645115 -0.01468918 22.04558694 -0.01884029 29.77474499 -0.01804566 C36.86707245 -0.01744795 43.95932311 -0.02795548 51.05163121 -0.04378933 C57.23175179 -0.05707201 63.41184795 -0.06222103 69.5919826 -0.06159025 C73.24247223 -0.06134105 76.89289354 -0.06385692 80.54336834 -0.0747683 C96.1174776 -0.11798791 111.62576861 0.16353294 127.17415905 1.07228637 C127.87159615 1.11223775 128.56903325 1.15218912 129.28760481 1.19335115 C166.76538978 3.38918459 202.63181516 10.25184433 229.33529186 38.62428832 C261.56688456 75.948025 259.18160215 132.17591662 259.19004893 178.47986102 C259.19077044 180.71330606 259.19292501 182.94674532 259.19554615 185.18018889 C259.20474285 193.03786129 259.20888863 200.89551697 259.2080946 208.75319457 C259.20749681 215.96992066 259.21800461 223.18657129 259.23383826 230.40327835 C259.24711009 236.68612232 259.25227039 242.96894226 259.25163919 249.25180006 C259.25138967 252.96542942 259.25392452 256.67899166 259.26481724 260.3926065 C259.30707123 275.90782792 259.05382746 291.35586689 258.11776257 306.84596801 C258.07781119 307.51914581 258.03785981 308.19232361 257.99669778 308.88590074 C255.73579707 346.09495718 248.89303994 382.13631565 220.49544811 408.51491332 C182.8083698 440.77859417 126.70140638 438.32584292 80.04558372 438.33451414 C77.84981515 438.33523646 75.65405242 438.33739246 73.45828533 438.34001136 C65.72913257 438.34920332 57.99999678 438.35335443 50.27083874 438.3525598 C43.17851128 438.35196209 36.08626062 438.36246962 28.99395251 438.37830347 C22.81383193 438.39158615 16.63373578 438.39673517 10.45360112 438.3961044 C6.80311149 438.39585519 3.15269019 438.39837106 -0.49778461 438.40928245 C-16.07189387 438.45250205 -31.58018488 438.1709812 -47.12857533 437.26222777 C-47.82601243 437.2222764 -48.52344953 437.18232502 -49.24202108 437.14116299 C-86.59520926 434.95262971 -122.83772009 428.15435984 -149.32486439 399.63991332 C-181.45616454 362.10746837 -179.13598204 306.35805186 -179.14446521 259.85465312 C-179.14518672 257.62120808 -179.14734129 255.38776882 -179.14996243 253.15432525 C-179.15915912 245.29665285 -179.1633049 237.43899717 -179.16251087 229.58131957 C-179.16191308 222.36459349 -179.17242089 215.14794286 -179.18825454 207.93123579 C-179.20152636 201.64839182 -179.20668666 195.36557188 -179.20605546 189.08271408 C-179.20580595 185.36908472 -179.2083408 181.65552248 -179.21923351 177.94190764 C-179.2614875 162.42668622 -179.00824373 146.97864725 -178.07217884 131.48854613 C-178.03222746 130.81536833 -177.99227608 130.14219053 -177.95111406 129.44861341 C-175.68267248 92.1154523 -168.77647323 56.44891833 -140.52017689 29.85475707 C-119.22020996 11.46078263 -92.45618501 5.49661499 -65.16470814 2.47975707 C-64.08785755 2.36027709 -63.01100697 2.24079711 -61.90152454 2.11769652 C-41.32729962 0.0275829 -20.65852881 0.00383949 0 0 Z M-70.97720814 132.16725707 C-86.12646712 151.94128984 -87.41598969 174.33610831 -87.72720814 198.41725707 C-87.74400623 199.42606933 -87.76080433 200.43488158 -87.77811146 201.47426391 C-88.015822 215.79140717 -88.0253845 230.10121629 -87.72720814 244.41725707 C-87.71459949 245.18735106 -87.70199085 245.95744506 -87.68900013 246.75087523 C-87.27784297 269.52407282 -84.46067748 292.68378773 -67.59439564 309.55006957 C-55.03585642 320.17031334 -38.08920877 326.24716065 -21.55923939 325.54616332 C-14.78949422 324.55272114 -10.33036794 321.2765916 -6.16470814 315.95631957 C-2.69591453 310.73030814 -2.2088685 305.31796139 -3.33658314 299.22585082 C-5.19487737 292.80971332 -9.19275848 288.39444692 -14.97720814 285.16725707 C-18.96596883 283.93857233 -23.02795508 283.17010454 -27.14908314 282.53346801 C-32.28671851 281.71687637 -36.0186234 280.79942178 -39.97720814 277.16725707 C-42.42107036 271.61667583 -43.61040359 266.55738122 -44.14908314 260.54225707 C-44.22866261 259.69453734 -44.30824207 258.84681762 -44.39023304 257.97340941 C-45.35471636 246.38011993 -45.27544983 234.74718087 -45.23795033 223.1223352 C-45.2272254 219.17361133 -45.23790786 215.22534226 -45.25064564 211.27663207 C-45.25800904 200.08986842 -45.19533685 188.93746747 -44.14908314 177.79225707 C-44.0799773 177.02059203 -44.01087147 176.24892699 -43.93967152 175.45387816 C-43.25802632 169.26809923 -42.10304469 163.11779975 -37.37173939 158.77663207 C-33.16086592 156.78022255 -29.23767563 156.12369427 -24.66470814 155.41725707 C-16.68643165 153.95254295 -10.90150813 152.04624103 -5.97720814 145.16725707 C-3.18958594 140.368891 -2.29746215 135.70233154 -2.97720814 130.16725707 C-4.9274168 123.55047769 -8.12086053 118.88074152 -13.97720814 115.16725707 C-31.30308946 106.94240966 -59.41483407 118.79286916 -70.97720814 132.16725707 Z M86.21029186 122.37819457 C82.74149825 127.604206 82.25445223 133.01655275 83.38216686 139.10866332 C85.24046109 145.52480082 89.2383422 149.94006722 95.02279186 153.16725707 C99.01155256 154.39594181 103.0735388 155.16440961 107.19466686 155.80104613 C112.33230223 156.61763777 116.06420712 157.53509236 120.02279186 161.16725707 C122.46665408 166.71783831 123.65598731 171.77713292 124.19466686 177.79225707 C124.27424633 178.6399768 124.3538258 179.48769652 124.43581676 180.36110473 C125.40030008 191.95439421 125.32103355 203.58733327 125.28353405 215.21217895 C125.27280912 219.16090281 125.28349159 223.10917188 125.29622936 227.05788207 C125.30359277 238.24464572 125.24092058 249.39704668 124.19466686 260.54225707 C124.12556103 261.31392211 124.05645519 262.08558715 123.98525524 262.88063598 C123.30361005 269.06641491 122.14862841 275.21671439 117.41732311 279.55788207 C113.20644964 281.55429159 109.28325935 282.21081988 104.71029186 282.91725707 C96.73201538 284.38197119 90.94709186 286.28827311 86.02279186 293.16725707 C83.23516967 297.96562315 82.34304588 302.6321826 83.02279186 308.16725707 C84.97300052 314.78403645 88.16644426 319.45377262 94.02279186 323.16725707 C104.50187072 328.14182795 117.48103971 324.62803238 128.02279186 321.16725707 C142.78925913 315.59617245 153.0339091 306.20859 160.02279186 292.16725707 C166.95770673 275.98178275 167.3993017 258.67589385 167.71029186 241.35475707 C167.72991985 240.38569427 167.74954784 239.41663146 167.76977062 238.41820312 C168.05714859 223.8491372 168.03974895 209.29771056 167.71029186 194.72975707 C167.69332256 193.88738494 167.67635326 193.04501281 167.65886974 192.17711425 C167.22432807 171.93324287 165.53404565 151.8582795 153.02279186 135.16725707 C152.55099499 134.51370238 152.07919811 133.8601477 151.59310436 133.18678832 C141.87090821 120.74567291 126.11969224 115.38237789 111.02279186 113.16725707 C100.38586479 112.12641218 92.95570801 113.76312503 86.21029186 122.37819457 Z " fill="#705AFE" transform="translate(215.9772081375122,36.83274292945862)"/>
</svg>
